# xmcd
#
# Track frame offsets: 
#        150
#        26770
#        45503
#        62297
#        79965
#        96722
#        110072
#        124274
#        151146
#        172738
#        192480
#        214561
#        228674
#        256207
#        274278
#        296556
#        315386
#
# Disc length: 4773 seconds
#
# Revision: 0
# Processed by: cddbd v1.5.2PL0 Copyright (c) Steve Scherf et al.
# Submitted via: ExactAudioCopy v1.3
#
DISCID=f112a311
DTITLE=Various Artist - Blues - Golden Age '60s -'70s  vol.07  CD1
DYEAR=2018
DGENRE=Rock
TTITLE0=John Mayall - 1970 - Nature's Disappearing
TTITLE1=Wings - 1971 - Bip Bop
TTITLE2=Delaney Bramlett - 1972 - B.B's Blues
TTITLE3=John Lennon - 1970 - Mother
TTITLE4=Janis Joplin - 1970 - Move Over
TTITLE5=Bread - 1972 - Welcome To The Music
TTITLE6=The Beatles - 1970 - Get Back
TTITLE7=Livin' Blues - 1967 - I Don't Know
TTITLE8=The Flamin' Groovies - 1971 - Whiskey Woman
TTITLE9=Maggie Bell - 1974 - As The Years Go Passing By
TTITLE10=Canned Heat - 1971 - Sneakin' Around
TTITLE11=Peter Green - 1979 - Like A Hot Tomato
TTITLE12=Andy Fraser - 1975 - Keep On Loving You
TTITLE13=Edgar Winter Group - 1972 - Round and Round
TTITLE14=Jimi Hendrix - 1969 - Crying Blue Rain
TTITLE15=Johnny Winter - 1973 - Let It Bleed
TTITLE16=Robin Trower - 1974 - Bridge Of Sighs and In This Place
EXTD=
EXTT0=
EXTT1=
EXTT2=
EXTT3=
EXTT4=
EXTT5=
EXTT6=
EXTT7=
EXTT8=
EXTT9=
EXTT10=
EXTT11=
EXTT12=
EXTT13=
EXTT14=
EXTT15=
EXTT16=
PLAYORDER=
